<?xml version="1.0" encoding="UTF-8"?>
<svg width="800" height="600" viewBox="0 0 800 600" fill="none" xmlns="http://www.w3.org/2000/svg">
  <!-- Background -->
  <rect width="800" height="600" fill="#F3F4F6"/>
  
  <!-- Abstract Shapes -->
  <circle cx="400" cy="300" r="250" fill="#E5E7EB" opacity="0.3"/>
  <circle cx="400" cy="300" r="200" fill="#D1D5DB" opacity="0.2"/>
  
  <!-- Tech Icons Grid -->
  <g transform="translate(200, 150)">
    <!-- Code Brackets -->
    <path d="M50 50 L80 100 L50 150" stroke="#3B82F6" stroke-width="8" stroke-linecap="round"/>
    <path d="M150 50 L120 100 L150 150" stroke="#3B82F6" stroke-width="8" stroke-linecap="round"/>
    
    <!-- Circuit Lines -->
    <path d="M100 50 L100 150" stroke="#3B82F6" stroke-width="4" stroke-dasharray="10 5"/>
    <path d="M50 100 L150 100" stroke="#3B82F6" stroke-width="4" stroke-dasharray="10 5"/>
    
    <!-- Additional Tech Elements -->
    <circle cx="100" cy="100" r="20" fill="#3B82F6" opacity="0.2"/>
    <circle cx="100" cy="100" r="10" fill="#3B82F6"/>
    
    <!-- Connection Lines -->
    <path d="M100 70 L100 130" stroke="#3B82F6" stroke-width="2" stroke-dasharray="5 5"/>
    <path d="M70 100 L130 100" stroke="#3B82F6" stroke-width="2" stroke-dasharray="5 5"/>
  </g>
  
  <!-- Decorative Elements -->
  <circle cx="200" cy="200" r="5" fill="#3B82F6"/>
  <circle cx="600" cy="200" r="5" fill="#3B82F6"/>
  <circle cx="200" cy="400" r="5" fill="#3B82F6"/>
  <circle cx="600" cy="400" r="5" fill="#3B82F6"/>
  
  <!-- Tech Symbols -->
  <g transform="translate(500, 200)">
    <path d="M0 0 L30 30 L0 60" stroke="#3B82F6" stroke-width="4" stroke-linecap="round"/>
    <path d="M60 0 L30 30 L60 60" stroke="#3B82F6" stroke-width="4" stroke-linecap="round"/>
  </g>
</svg> 