<?xml version="1.0" encoding="UTF-8"?>
<svg width="800" height="600" viewBox="0 0 800 600" fill="none" xmlns="http://www.w3.org/2000/svg">
  <!-- Background -->
  <rect width="800" height="600" fill="#F3F4F6"/>
  
  <!-- Cloud Shapes -->
  <g transform="translate(200, 200)">
    <!-- Main Cloud -->
    <path d="M0 100 C0 50, 50 0, 100 0 C150 0, 200 50, 200 100 C250 100, 300 150, 300 200 C300 250, 250 300, 200 300 C150 300, 100 250, 100 200 C50 200, 0 150, 0 100" 
          fill="#3B82F6" opacity="0.2"/>
    
    <!-- Smaller Clouds -->
    <path d="M50 150 C50 125, 75 100, 100 100 C125 100, 150 125, 150 150 C175 150, 200 175, 200 200 C200 225, 175 250, 150 250 C125 250, 100 225, 100 200 C75 200, 50 175, 50 150" 
          fill="#3B82F6" opacity="0.15"/>
    
    <path d="M100 250 C100 225, 125 200, 150 200 C175 200, 200 225, 200 250 C225 250, 250 275, 250 300 C250 325, 225 350, 200 350 C175 350, 150 325, 150 300 C125 300, 100 275, 100 250" 
          fill="#3B82F6" opacity="0.1"/>
  </g>
  
  <!-- Server Racks -->
  <g transform="translate(400, 150)">
    <!-- Server 1 -->
    <rect x="0" y="0" width="100" height="200" rx="4" fill="#1E293B"/>
    <rect x="10" y="10" width="80" height="20" rx="2" fill="#3B82F6"/>
    <rect x="10" y="40" width="80" height="10" rx="2" fill="#94A3B8"/>
    <rect x="10" y="60" width="80" height="10" rx="2" fill="#94A3B8"/>
    <rect x="10" y="80" width="80" height="10" rx="2" fill="#94A3B8"/>
    
    <!-- Server 2 -->
    <rect x="120" y="0" width="100" height="200" rx="4" fill="#1E293B"/>
    <rect x="130" y="10" width="80" height="20" rx="2" fill="#10B981"/>
    <rect x="130" y="40" width="80" height="10" rx="2" fill="#94A3B8"/>
    <rect x="130" y="60" width="80" height="10" rx="2" fill="#94A3B8"/>
    <rect x="130" y="80" width="80" height="10" rx="2" fill="#94A3B8"/>
  </g>
  
  <!-- Connection Lines -->
  <g stroke="#3B82F6" stroke-width="2" stroke-dasharray="5 5">
    <path d="M200 300 L400 350"/>
    <path d="M600 300 L400 350"/>
    <path d="M400 350 L400 450"/>
  </g>
  
  <!-- Decorative Elements -->
  <circle cx="400" cy="300" r="150" fill="#3B82F6" opacity="0.1"/>
  <circle cx="400" cy="300" r="100" fill="#3B82F6" opacity="0.05"/>
</svg> 