<?xml version="1.0" encoding="UTF-8"?>
<svg width="800" height="600" viewBox="0 0 800 600" fill="none" xmlns="http://www.w3.org/2000/svg">
  <!-- Background -->
  <rect width="800" height="600" fill="#F3F4F6"/>
  
  <!-- Browser Window -->
  <rect x="100" y="100" width="600" height="400" rx="8" fill="#FFFFFF" stroke="#E5E7EB" stroke-width="2"/>
  
  <!-- Browser Header -->
  <rect x="100" y="100" width="600" height="40" rx="8" fill="#F8FAFC"/>
  <circle cx="130" cy="120" r="6" fill="#EF4444"/>
  <circle cx="150" cy="120" r="6" fill="#F59E0B"/>
  <circle cx="170" cy="120" r="6" fill="#10B981"/>
  
  <!-- Code Editor -->
  <rect x="120" y="160" width="560" height="320" rx="4" fill="#1E293B"/>
  
  <!-- Code Lines -->
  <g fill="#94A3B8">
    <rect x="140" y="180" width="200" height="4" rx="2"/>
    <rect x="140" y="200" width="180" height="4" rx="2"/>
    <rect x="140" y="220" width="220" height="4" rx="2"/>
    <rect x="140" y="240" width="160" height="4" rx="2"/>
    <rect x="140" y="260" width="240" height="4" rx="2"/>
    <rect x="140" y="280" width="200" height="4" rx="2"/>
    <rect x="140" y="300" width="180" height="4" rx="2"/>
    <rect x="140" y="320" width="220" height="4" rx="2"/>
  </g>
  
  <!-- Syntax Highlighting -->
  <g fill="#60A5FA">
    <rect x="140" y="180" width="40" height="4" rx="2"/>
    <rect x="140" y="200" width="60" height="4" rx="2"/>
    <rect x="140" y="220" width="80" height="4" rx="2"/>
    <rect x="140" y="240" width="50" height="4" rx="2"/>
    <rect x="140" y="260" width="70" height="4" rx="2"/>
    <rect x="140" y="280" width="90" height="4" rx="2"/>
    <rect x="140" y="300" width="40" height="4" rx="2"/>
    <rect x="140" y="320" width="60" height="4" rx="2"/>
  </g>
  
  <!-- Decorative Elements -->
  <circle cx="400" cy="300" r="150" fill="#3B82F6" opacity="0.1"/>
  <circle cx="400" cy="300" r="100" fill="#3B82F6" opacity="0.05"/>
</svg> 